# xmcd CD database file
#
# Track frame offsets:
#	150
#	13131
#	25577
#	38100
#	51267
#	69840
#	83746
#	118865
#	133701
#	147497
#	160997
#	174840
#	189099
#
# Disc length: 2679 seconds
#
# Revision: 0
# Processed by: cddbd v1.5.2PL0 Copyright (c) Steve Scherf et al.
# Submitted via: CDex 1.70beta2
#
DISCID=a50a750d
DTITLE=Cafe Salsa - Cafe Salsa
DYEAR=2009
DGENRE=Salsa
TTITLE0=La Plata Sextette - Guajira Guantanamera
TTITLE1=Arsenio Rodriguez - Besarte Quisiera
TTITLE2=Beny More - Cuando Quiero Volver
TTITLE3=Chapottin Y Su Conjunto - La Guarapachanga
TTITLE4=Ritmo Alegria - Bongo
TTITLE5=Conjunto Casino - Mambo Infierno
TTITLE6=Orquesta Aliamen - Oye Guajiro Soy Del Campo
TTITLE7=Orquesta Riviera - Mi Mambito
TTITLE8=Chuito Velez Con Su Orquesta Y Adalberto Santiago - La Cumbia
TTITLE9=Cesar Concepcion - Timbalero
TTITLE10=Angel Luis Torruellas Con Los Pleneros De Borinquen - El Abusador
TTITLE11=Orquesta Aragon - El Bodeguero
TTITLE12=Omara Portuondo Y Orquesta Enrique Jorrin - Nada Para Ti
EXTD=YEAR: 2009
EXTT0=
EXTT1=
EXTT2=
EXTT3=
EXTT4=
EXTT5=
EXTT6=
EXTT7=
EXTT8=
EXTT9=
EXTT10=
EXTT11=
EXTT12=
PLAYORDER=
